HIERARCHY
ROOT Hips
{
	OFFSET 0.000000 0.000000 0.000000
	CHANNELS 6 Xposition Yposition Zposition Xrotation Yrotation Zrotation
	JOINT LeftUpLeg_virtual
	{
		OFFSET 0.000000 0.000000 0.000000
		CHANNELS 3 Xrotation Yrotation Zrotation
		JOINT LeftUpLeg
		{
			OFFSET 11.394100 -6.187798 -0.413800
			CHANNELS 3 Xrotation Yrotation Zrotation
			JOINT LeftLeg
			{
				OFFSET 0.430247 -32.302673 3.732800
				CHANNELS 3 Xrotation Yrotation Zrotation
				JOINT LeftFoot
				{
					OFFSET -0.430247 -48.264931 -6.423300
					CHANNELS 3 Xrotation Yrotation Zrotation
					JOINT LeftToeBase
					{
						OFFSET 4.230900 -16.068199 23.438400
						CHANNELS 3 Xrotation Yrotation Zrotation
						JOINT LeftToe_End
						{
							OFFSET 4.510700 0.695400 19.974600
							CHANNELS 3 Xrotation Yrotation Zrotation
							End Site
							{
								OFFSET 0 0 0
							}
						}
					}
				}
			}
		}
	}
	JOINT RightUpLeg_virtual
	{
		OFFSET 0.000000 0.000000 0.000000
		CHANNELS 3 Xrotation Yrotation Zrotation
		JOINT RightUpLeg
		{
			OFFSET -11.333700 -6.187798 -0.413800
			CHANNELS 3 Xrotation Yrotation Zrotation
			JOINT RightLeg
			{
				OFFSET -0.430392 -32.302628 3.733000
				CHANNELS 3 Xrotation Yrotation Zrotation
				JOINT RightFoot
				{
					OFFSET 0.430392 -48.264973 -6.423500
					CHANNELS 3 Xrotation Yrotation Zrotation
					JOINT RightToeBase
					{
						OFFSET -4.230900 -16.068199 23.438400
						CHANNELS 3 Xrotation Yrotation Zrotation
						JOINT RightToe_End
						{
							OFFSET -4.510700 0.695400 19.974600
							CHANNELS 3 Xrotation Yrotation Zrotation
							End Site
							{
								OFFSET 0 0 0
							}
						}
					}
				}
			}
		}
	}
	JOINT Spine_virtual
	{
		OFFSET 0.000000 0.000000 0.000000
		CHANNELS 3 Xrotation Yrotation Zrotation
		JOINT Spine
		{
			OFFSET -0.002400 12.777504 0.315300
			CHANNELS 3 Xrotation Yrotation Zrotation
			JOINT Spine1
			{
				OFFSET -0.002067 5.816869 0.032633
				CHANNELS 3 Xrotation Yrotation Zrotation
				JOINT Spine1_split
				{
					OFFSET -0.002067 5.816869 0.032633
					CHANNELS 3 Xrotation Yrotation Zrotation
					JOINT Spine2
					{
						OFFSET -0.002067 5.816869 0.032633
						CHANNELS 3 Xrotation Yrotation Zrotation
						JOINT Neck_virtual
						{
							OFFSET 0.000000 0.000000 0.000000
							CHANNELS 3 Xrotation Yrotation Zrotation
							JOINT Neck
							{
								OFFSET -0.003700 21.199493 -0.826900
								CHANNELS 3 Xrotation Yrotation Zrotation
								JOINT Head
								{
									OFFSET 0.000000 20.442200 4.834800
									CHANNELS 3 Xrotation Yrotation Zrotation
									JOINT HeadTop_End
									{
										OFFSET 0.000000 34.668396 4.968400
										CHANNELS 3 Xrotation Yrotation Zrotation
										End Site
										{
											OFFSET 0 0 0
										}
									}
								}
							}
						}
						JOINT LeftShoulder_virtual
						{
							OFFSET 0.000000 0.000000 0.000000
							CHANNELS 3 Xrotation Yrotation Zrotation
							JOINT LeftShoulder
							{
								OFFSET 3.288150 8.794197 -1.372250
								CHANNELS 3 Xrotation Yrotation Zrotation
								JOINT LeftShoulder_split
								{
									OFFSET 3.288150 8.794197 -1.372250
									CHANNELS 3 Xrotation Yrotation Zrotation
									JOINT LeftArm
									{
										OFFSET 11.953299 -2.279007 -0.146200
										CHANNELS 3 Xrotation Yrotation Zrotation
										JOINT LeftForeArm
										{
											OFFSET 18.448900 0.000000 0.000000
											CHANNELS 3 Xrotation Yrotation Zrotation
											JOINT LeftHand
											{
												OFFSET 29.527798 0.000000 0.000000
												CHANNELS 3 Xrotation Yrotation Zrotation
												End Site
												{
													OFFSET 0 0 0
												}
											}
										}
									}
								}
							}
						}
						JOINT RightShoulder_virtual
						{
							OFFSET 0.000000 0.000000 0.000000
							CHANNELS 3 Xrotation Yrotation Zrotation
							JOINT RightShoulder
							{
								OFFSET -3.249400 8.794197 -1.372250
								CHANNELS 3 Xrotation Yrotation Zrotation
								JOINT RightShoulder_split
								{
									OFFSET -3.249400 8.794197 -1.372250
									CHANNELS 3 Xrotation Yrotation Zrotation
									JOINT RightArm
									{
										OFFSET -11.953299 -2.279007 -0.146200
										CHANNELS 3 Xrotation Yrotation Zrotation
										JOINT RightForeArm
										{
											OFFSET -18.448900 0.000000 0.000000
											CHANNELS 3 Xrotation Yrotation Zrotation
											JOINT RightHand
											{
												OFFSET -29.527802 0.000000 0.000000
												CHANNELS 3 Xrotation Yrotation Zrotation
												End Site
												{
													OFFSET 0 0 0
												}
											}
										}
									}
								}
							}
						}
					}
				}
			}
		}
	}
}
MOTION
Frames: 6
Frame Time: 0.03333333
4.516913 104.934814 -7.489809 0.000000 0.000000 0.000000 -2.069886 -3.227818 -2.610720 -17.766089 16.128954 11.753372 14.239831 2.613790 4.174575 4.152097 1.099266 -13.473080 -1.363105 -3.827790 0.570262 0.000000 0.000000 0.000000 -1.902382 -2.904427 -2.682040 1.151254 -10.526646 -0.178714 2.294254 -4.177626 -1.366707 -3.604124 -5.820433 7.531135 -3.695483 0.446329 -7.191557 0.000000 0.000000 0.000000 -2.263718 -1.041338 -2.859728 3.105204 -0.987887 3.799780 -0.508482 0.208965 2.030384 0.135099 -0.183264 -0.020690 0.000000 0.000000 0.000000 0.798645 2.170120 1.915201 8.614933 2.676673 0.801577 -6.140444 -14.530034 -11.947766 0.000000 0.000000 0.000000 -0.258728 0.802661 1.298225 -1.564790 -18.005586 -14.365826 -0.107523 0.434541 -4.150754 12.645678 -22.906166 -65.909700 0.303598 -5.737824 2.661748 0.000000 0.000000 0.000000 0.630026 1.153954 2.064733 1.268546 9.596072 13.530246 -4.441947 0.562602 1.455060 10.539489 28.900696 62.275206 -3.573238 -0.601923 0.971647 0.000000 0.000000 0.000000 
4.542255 104.924576 -7.447622 0.000000 0.000000 0.000000 -2.102966 -3.335544 -2.634821 -17.699535 16.100059 11.739050 14.319137 2.649475 4.159406 4.117760 1.229876 -13.427255 -1.352753 -3.837991 0.567685 0.000000 0.000000 0.000000 -1.914435 -2.945038 -2.689824 1.199450 -10.481778 -0.159996 2.261862 -4.143233 -1.383767 -3.542384 -5.959263 7.494488 -3.487383 0.420193 -7.060591 0.000000 0.000000 0.000000 -2.318785 -1.137214 -2.902087 3.144598 -1.009416 3.796755 -0.499353 0.201540 2.044927 0.130615 -0.183812 -0.026600 0.000000 0.000000 0.000000 0.796539 2.169331 1.927355 8.601166 2.667976 0.819379 -6.200381 -14.478780 -11.908711 0.000000 0.000000 0.000000 -0.241125 0.796847 1.318613 -1.564918 -18.061221 -14.371893 -0.126959 0.379756 -4.096608 12.551596 -22.904507 -65.957880 0.264181 -5.874219 2.644101 0.000000 0.000000 0.000000 0.625956 1.145768 2.077375 1.248545 9.522177 13.550267 -4.458853 0.553039 1.497320 10.681106 28.888470 62.153014 -3.552327 -0.683216 1.023278 0.000000 0.000000 0.000000 
4.561701 104.897118 -7.409048 0.000000 0.000000 0.000000 -2.168876 -3.554150 -2.673002 -17.550811 16.090321 11.760556 14.466168 2.713187 4.155725 3.994990 1.462508 -13.423413 -1.376648 -3.850504 0.546321 0.000000 0.000000 0.000000 -1.963945 -3.105244 -2.711323 1.178858 -10.384103 -0.142241 2.328392 -3.988959 -1.401123 -3.456806 -6.144256 7.545876 -3.230818 0.412746 -7.199643 0.000000 0.000000 0.000000 -2.395271 -1.326793 -2.963774 3.189982 -1.014357 3.806749 -0.480522 0.183188 2.068114 0.125712 -0.180065 -0.032530 0.000000 0.000000 0.000000 0.808950 2.158642 1.940957 8.587286 2.650931 0.853117 -6.334689 -14.395761 -11.897966 0.000000 0.000000 0.000000 -0.216385 0.779979 1.346859 -1.579220 -18.105423 -14.358992 -0.129407 0.345354 -4.107400 12.447344 -22.864417 -66.007898 0.310998 -5.959074 2.683415 0.000000 0.000000 0.000000 0.621782 1.124944 2.096155 1.261544 9.474404 13.566989 -4.557138 0.604808 1.557169 10.984676 28.934922 61.929154 -3.502738 -0.738458 1.058931 0.000000 0.000000 0.000000 
4.558816 104.858688 -7.375383 0.000000 0.000000 0.000000 -2.266887 -3.857097 -2.716623 -17.351264 16.103809 11.808707 14.663603 2.795126 4.154895 3.806696 1.771566 -13.462382 -1.417912 -3.863902 0.518962 0.000000 0.000000 0.000000 -2.040711 -3.360907 -2.739849 1.119892 -10.239015 -0.114301 2.458114 -3.721657 -1.425771 -3.398107 -6.352639 7.646270 -2.890301 0.421542 -7.587085 0.000000 0.000000 0.000000 -2.493445 -1.572856 -3.034535 3.237888 -0.996153 3.828782 -0.453682 0.158380 2.094037 0.124266 -0.169981 -0.032810 0.000000 0.000000 0.000000 0.834723 2.139786 1.951728 8.574619 2.621010 0.904036 -6.521935 -14.289970 -11.903199 0.000000 0.000000 0.000000 -0.185429 0.754789 1.374776 -1.611009 -18.142729 -14.322055 -0.152802 0.351262 -4.180404 12.360602 -22.738133 -66.062191 0.421024 -5.963106 2.769174 0.000000 0.000000 0.000000 0.622111 1.095511 2.116893 1.302107 9.462605 13.568820 -4.684018 0.685693 1.619966 11.427179 29.096777 61.622547 -3.419995 -0.774897 1.058132 0.000000 0.000000 0.000000 
4.544091 104.811180 -7.358263 0.000000 0.000000 0.000000 -2.387104 -4.214846 -2.762376 -17.122777 16.133728 11.863596 14.891346 2.891576 4.152344 3.597108 2.136320 -13.535336 -1.439224 -3.878213 0.493172 0.000000 0.000000 0.000000 -2.142080 -3.679277 -2.771680 1.040843 -10.056588 -0.074487 2.627233 -3.365504 -1.463997 -3.398583 -6.586549 7.734053 -2.431139 0.436012 -8.169890 0.000000 0.000000 0.000000 -2.614730 -1.868881 -3.102718 3.287838 -0.949340 3.861451 -0.416779 0.132221 2.117042 0.122386 -0.162483 -0.028882 0.000000 0.000000 0.000000 0.869363 2.116223 1.953678 8.562848 2.574644 0.976336 -6.714038 -14.191280 -11.900614 0.000000 0.000000 0.000000 -0.148289 0.723160 1.398185 -1.659568 -18.188582 -14.251682 -0.185785 0.377781 -4.286715 12.302975 -22.506609 -66.106689 0.564677 -5.915873 2.880554 0.000000 0.000000 0.000000 0.631374 1.061949 2.134498 1.366332 9.498466 13.537606 -4.836537 0.738058 1.684069 11.992840 29.411191 61.226909 -3.300884 -0.770084 1.000327 0.000000 0.000000 0.000000 
4.525475 104.763252 -7.364691 0.000000 0.000000 0.000000 -2.517113 -4.598201 -2.801170 -16.882281 16.171608 11.906311 15.118405 3.005443 4.144382 3.398235 2.534637 -13.625405 -1.443219 -3.893169 0.475842 0.000000 0.000000 0.000000 -2.264962 -4.028889 -2.797852 0.951184 -9.854494 -0.031898 2.824455 -2.944920 -1.516678 -3.440172 -6.836369 7.801768 -1.916719 0.445160 -8.893884 0.000000 0.000000 0.000000 -2.758862 -2.189118 -3.161993 3.343545 -0.877838 3.900016 -0.369646 0.106457 2.131570 0.120234 -0.167809 -0.025085 0.000000 0.000000 0.000000 0.910924 2.090666 1.944294 8.555702 2.513502 1.068898 -6.863947 -14.142848 -11.870472 0.000000 0.000000 0.000000 -0.105428 0.685462 1.412217 -1.722144 -18.249208 -14.143265 -0.216077 0.398087 -4.395305 12.283111 -22.148108 -66.149952 0.715776 -5.848494 2.996567 0.000000 0.000000 0.000000 0.648162 1.025001 2.144882 1.443896 9.590593 13.473042 -4.994741 0.757156 1.733078 12.635409 29.856451 60.761882 -3.150437 -0.686679 0.874105 0.000000 0.000000 0.000000 
